<?xml version="1.0" encoding="utf-8"?>
<svg version="1.1" width="10px" height="16px" xmlns:xlink="http://www.w3.org/1999/xlink" xmlns="http://www.w3.org/2000/svg">
  <g transform="translate(-74 -321 )">
    <path d="M 6.767578125 7.21875  C 7.255859375 6.69791666666667  7.5 6.06944444444444  7.5 5.33333333333333  C 7.5 4.59722222222222  7.255859375 3.96875  6.767578125 3.44791666666667  C 6.279296875 2.92708333333333  5.69010416666667 2.66666666666667  5 2.66666666666667  C 4.30989583333333 2.66666666666667  3.720703125 2.92708333333333  3.232421875 3.44791666666667  C 2.744140625 3.96875  2.5 4.59722222222222  2.5 5.33333333333333  C 2.5 6.06944444444444  2.744140625 6.69791666666667  3.232421875 7.21875  C 3.720703125 7.73958333333333  4.30989583333333 8  5 8  C 5.69010416666667 8  6.279296875 7.73958333333333  6.767578125 7.21875  Z M 8.53515625 1.5625  C 9.51171875 2.60416666666667  10 3.86111111111111  10 5.33333333333333  C 10 6.09027777777778  9.892578125 6.71180555555556  9.677734375 7.19791666666667  L 6.123046875 15.2604166666667  C 6.01888020833333 15.4895833333333  5.8642578125 15.6701388888889  5.6591796875 15.8020833333333  C 5.4541015625 15.9340277777778  5.234375 16  5 16  C 4.765625 16  4.5458984375 15.9340277777778  4.3408203125 15.8020833333333  C 4.1357421875 15.6701388888889  3.984375 15.4895833333333  3.88671875 15.2604166666667  L 0.322265625 7.19791666666667  C 0.107421875 6.71180555555556  0 6.09027777777778  0 5.33333333333333  C 0 3.86111111111111  0.48828125 2.60416666666667  1.46484375 1.5625  C 2.44140625 0.520833333333334  3.61979166666667 0  5 0  C 6.38020833333333 0  7.55859375 0.520833333333334  8.53515625 1.5625  Z " fill-rule="nonzero" fill="#000000" stroke="none" fill-opacity="0.498039215686275" transform="matrix(1 0 0 1 74 321 )" />
  </g>
</svg>