<?xml version="1.0" encoding="utf-8"?>
<svg version="1.1" width="11px" height="17px" xmlns:xlink="http://www.w3.org/1999/xlink" xmlns="http://www.w3.org/2000/svg">
  <g transform="translate(-92 -794 )">
    <path d="M 6.30924479166667 16.050390625  C 6.53363715277778 15.8423177083333  6.64583333333333 15.5921875  6.64583333333333 15.3  C 6.64583333333333 15.0078125  6.53363715277778 14.7576822916667  6.30924479166667 14.549609375  C 6.08485243055556 14.3415364583333  5.81510416666667 14.2375  5.5 14.2375  C 5.18489583333333 14.2375  4.91514756944444 14.3415364583333  4.69075520833333 14.549609375  C 4.46636284722222 14.7576822916667  4.35416666666667 15.0078125  4.35416666666667 15.3  C 4.35416666666667 15.5921875  4.46636284722222 15.8423177083333  4.69075520833333 16.050390625  C 4.91514756944444 16.2584635416667  5.18489583333333 16.3625  5.5 16.3625  C 5.81510416666667 16.3625  6.08485243055556 16.2584635416667  6.30924479166667 16.050390625  Z M 9.48893229166667 13.473828125  C 9.57964409722222 13.3897135416667  9.625 13.2901041666667  9.625 13.175  L 9.625 3.825  C 9.625 3.70989583333333  9.57964409722222 3.61028645833333  9.48893229166667 3.526171875  C 9.39822048611111 3.44205729166667  9.29079861111111 3.4  9.16666666666667 3.4  L 1.83333333333333 3.4  C 1.70920138888889 3.4  1.60177951388889 3.44205729166667  1.51106770833333 3.526171875  C 1.42035590277778 3.61028645833333  1.375 3.70989583333333  1.375 3.825  L 1.375 13.175  C 1.375 13.2901041666667  1.42035590277778 13.3897135416667  1.51106770833333 13.473828125  C 1.60177951388889 13.5579427083333  1.70920138888889 13.6  1.83333333333333 13.6  L 9.16666666666667 13.6  C 9.29079861111111 13.6  9.39822048611111 13.5579427083333  9.48893229166667 13.473828125  Z M 6.64583333333333 2.125  C 6.79861111111111 2.125  6.875 2.05416666666666  6.875 1.9125  C 6.875 1.77083333333333  6.79861111111111 1.7  6.64583333333333 1.7  L 4.35416666666667 1.7  C 4.20138888888889 1.7  4.125 1.77083333333333  4.125 1.9125  C 4.125 2.05416666666666  4.20138888888889 2.125  4.35416666666667 2.125  L 6.64583333333333 2.125  Z M 10.4557291666667 0.5046875  C 10.8185763888889 0.841145833333333  11 1.23958333333333  11 1.7  L 11 15.3  C 11 15.7604166666667  10.8185763888889 16.1588541666667  10.4557291666667 16.4953125  C 10.0928819444444 16.8317708333333  9.66319444444445 17  9.16666666666667 17  L 1.83333333333333 17  C 1.33680555555556 17  0.907118055555556 16.8317708333333  0.544270833333333 16.4953125  C 0.181423611111111 16.1588541666667  0 15.7604166666667  0 15.3  L 0 1.7  C 0 1.23958333333333  0.181423611111111 0.841145833333333  0.544270833333333 0.5046875  C 0.907118055555556 0.168229166666665  1.33680555555556 0  1.83333333333333 0  L 9.16666666666667 0  C 9.66319444444445 0  10.0928819444444 0.168229166666665  10.4557291666667 0.5046875  Z " fill-rule="nonzero" fill="#000000" stroke="none" transform="matrix(1 0 0 1 92 794 )" />
  </g>
</svg>