<?xml version="1.0" encoding="utf-8"?>
<svg version="1.1" width="29px" height="40px" xmlns:xlink="http://www.w3.org/1999/xlink" xmlns="http://www.w3.org/2000/svg">
  <g transform="translate(-733 -565 )">
    <path d="M 28.9693926694582 14.4489929199219  C 28.9693926694582 6.48151448567708  22.4785522636578 0  14.5003901683341 0  C 6.52144773634218 0  0.0306073305418147 6.48151448567708  0.0306073305418147 14.4489929199219  C 0.0306073305418147 24.3364583333333  12.9795140020796 38.8516845703125  13.5304316898044 39.4649271647135  C 14.0485752374663 40.0407674153646  14.9522050992019 40.0399881998698  15.4695683101956 39.4649271647135  C 16.0212663345886 38.8516845703125  28.9693926694582 24.3364583333333  28.9693926694582 14.4489929199219  Z M 21.7801509456497 14.4489929199219  C 21.7801509456497 18.4572774251302  18.5144419893772 21.7182942708333  14.5003901683341 21.7182942708333  C 10.4863383472909 21.7182942708333  7.22062939101843 18.4572774251302  7.22062939101843 14.4489929199219  C 7.22062939101843 10.4407084147135  10.4863383472909 7.17969156901042  14.5003901683341 7.17969156901042  C 18.5144419893772 7.17969156901042  21.7801509456497 10.4407084147135  21.7801509456497 14.4489929199219  Z " fill-rule="nonzero" fill="#ff6918" stroke="none" transform="matrix(1 0 0 1 733 565 )" />
  </g>
</svg>