<?xml version="1.0" encoding="utf-8"?>
<svg version="1.1" width="17px" height="18px" xmlns:xlink="http://www.w3.org/1999/xlink" xmlns="http://www.w3.org/2000/svg">
  <g transform="translate(-18 -16 )">
    <path d="M 1.30769230769231 6.42857142857143  L 1.30769230769231 16.7142857142857  L 15.6923076923077 16.7142857142857  L 15.6923076923077 6.42857142857143  L 1.30769230769231 6.42857142857143  Z M 5.13882211538462 4.73102678571428  C 5.20012019230769 4.67075892857143  5.23076923076923 4.59375  5.23076923076923 4.5  L 5.23076923076923 1.60714285714286  C 5.23076923076923 1.51339285714285  5.20012019230769 1.43638392857143  5.13882211538462 1.37611607142857  C 5.07752403846154 1.31584821428571  4.99919871794872 1.28571428571429  4.90384615384615 1.28571428571429  L 4.25 1.28571428571429  C 4.15464743589744 1.28571428571429  4.07632211538462 1.31584821428571  4.01502403846154 1.37611607142857  C 3.95372596153846 1.43638392857143  3.92307692307692 1.51339285714285  3.92307692307692 1.60714285714286  L 3.92307692307692 4.5  C 3.92307692307692 4.59375  3.95372596153846 4.67075892857143  4.01502403846154 4.73102678571428  C 4.07632211538462 4.79129464285714  4.15464743589744 4.82142857142857  4.25 4.82142857142857  L 4.90384615384615 4.82142857142857  C 4.99919871794872 4.82142857142857  5.07752403846154 4.79129464285714  5.13882211538462 4.73102678571428  Z M 12.9849759615385 4.73102678571428  C 13.0462740384615 4.67075892857143  13.0769230769231 4.59375  13.0769230769231 4.5  L 13.0769230769231 1.60714285714286  C 13.0769230769231 1.51339285714285  13.0462740384615 1.43638392857143  12.9849759615385 1.37611607142857  C 12.9236778846154 1.31584821428571  12.8453525641026 1.28571428571429  12.75 1.28571428571429  L 12.0961538461538 1.28571428571429  C 12.0008012820513 1.28571428571429  11.9224759615385 1.31584821428571  11.8611778846154 1.37611607142857  C 11.7998798076923 1.43638392857143  11.7692307692308 1.51339285714285  11.7692307692308 1.60714285714286  L 11.7692307692308 4.5  C 11.7692307692308 4.59375  11.7998798076923 4.67075892857143  11.8611778846154 4.73102678571428  C 11.9224759615385 4.79129464285714  12.0008012820513 4.82142857142857  12.0961538461538 4.82142857142857  L 12.75 4.82142857142857  C 12.8453525641026 4.82142857142857  12.9236778846154 4.79129464285714  12.9849759615385 4.73102678571428  Z M 16.6117788461538 2.953125  C 16.8705929487179 3.20758928571429  17 3.50892857142857  17 3.85714285714286  L 17 16.7142857142857  C 17 17.0625  16.8705929487179 17.3638392857143  16.6117788461538 17.6183035714286  C 16.3529647435897 17.8727678571429  16.0464743589744 18  15.6923076923077 18  L 1.30769230769231 18  C 0.953525641025641 18  0.647035256410257 17.8727678571429  0.388221153846154 17.6183035714286  C 0.129407051282051 17.3638392857143  0 17.0625  0 16.7142857142857  L 0 3.85714285714286  C 0 3.50892857142857  0.129407051282051 3.20758928571429  0.388221153846154 2.953125  C 0.647035256410257 2.69866071428571  0.953525641025641 2.57142857142857  1.30769230769231 2.57142857142857  L 2.61538461538462 2.57142857142857  L 2.61538461538462 1.60714285714286  C 2.61538461538462 1.16517857142857  2.77544070512821 0.786830357142856  3.09555288461538 0.472098214285715  C 3.41566506410256 0.157366071428572  3.80048076923077 0  4.25 0  L 4.90384615384615 0  C 5.35336538461538 0  5.73818108974359 0.157366071428572  6.05829326923077 0.472098214285715  C 6.37840544871795 0.786830357142856  6.53846153846154 1.16517857142857  6.53846153846154 1.60714285714286  L 6.53846153846154 2.57142857142857  L 10.4615384615385 2.57142857142857  L 10.4615384615385 1.60714285714286  C 10.4615384615385 1.16517857142857  10.6215945512821 0.786830357142856  10.9417067307692 0.472098214285715  C 11.2618189102564 0.157366071428572  11.6466346153846 0  12.0961538461538 0  L 12.75 0  C 13.1995192307692 0  13.5843349358974 0.157366071428572  13.9044471153846 0.472098214285715  C 14.2245592948718 0.786830357142856  14.3846153846154 1.16517857142857  14.3846153846154 1.60714285714286  L 14.3846153846154 2.57142857142857  L 15.6923076923077 2.57142857142857  C 16.0464743589744 2.57142857142857  16.3529647435897 2.69866071428571  16.6117788461538 2.953125  Z " fill-rule="nonzero" fill="#000000" stroke="none" transform="matrix(1 0 0 1 18 16 )" />
  </g>
</svg>